<svg viewBox="0 0 40 40" xmlns="http://www.w3.org/2000/svg" id="social">
<rect width="40" height="40" rx="8"/>
<path d="M32.4022 9.25164C32.2596 9.12855 32.0862 9.04669 31.9006 9.01488C31.715 8.98306 31.5242 9.0025 31.3488 9.07109L8.04265 18.1918C7.71235 18.3203 7.43271 18.5525 7.24584 18.8536C7.05896 19.1548 6.97496 19.5084 7.00648 19.8614C7.03801 20.2144 7.18335 20.5476 7.42062 20.8108C7.6579 21.0741 7.97427 21.2531 8.3221 21.321L14.3608 22.5067V29.24C14.3596 29.6067 14.4686 29.9654 14.6737 30.2695C14.8787 30.5736 15.1704 30.8091 15.5108 30.9454C15.8508 31.0843 16.2246 31.1176 16.5837 31.0411C16.9428 30.9646 17.2706 30.7818 17.5245 30.5165L20.4363 27.4966L25.0559 31.54C25.3892 31.8356 25.8191 31.9992 26.2646 32C26.4598 31.9998 26.6538 31.9692 26.8396 31.9091C27.1431 31.8128 27.4161 31.6387 27.6314 31.404C27.8467 31.1694 27.9968 30.8824 28.0666 30.5717L32.7345 10.2648C32.7763 10.0817 32.7674 9.89061 32.7089 9.71213C32.6503 9.53365 32.5443 9.37446 32.4022 9.25164ZM25.371 13.3917L15.0681 20.7701L9.36401 19.6512L25.371 13.3917ZM16.2008 29.24V23.7797L19.0517 26.2798L16.2008 29.24ZM26.2669 30.16L16.7586 21.8224L30.4437 12.014L26.2669 30.16Z" fill="white"/>
</svg>
