<svg viewBox="0 0 40 40" xmlns="http://www.w3.org/2000/svg" id="social">
<!-- <rect width="40" height="40" rx="8" fill="#BA44E3"/> -->
<rect width="40" height="40" rx="8"/>
<path d="M28.0291 17.7849C28.0556 14.4976 25.3433 11.4835 21.9832 11.067L21.7629 11.034C21.5944 11.0005 21.4234 10.9814 21.2517 10.9767C20.5621 10.9767 20.3792 11.4746 20.3307 11.7721C20.3032 11.8956 20.3008 12.0234 20.3235 12.1479C20.3462 12.2724 20.3936 12.3911 20.4629 12.497C20.6921 12.8165 21.0931 12.8715 21.4148 12.92C21.5095 12.9332 21.5998 12.9443 21.6726 12.9641C24.6933 13.6581 25.7112 14.7532 26.207 17.8444C26.2202 17.9215 26.2246 18.0141 26.229 18.1132C26.251 18.4812 26.2973 19.2501 27.0993 19.2501C27.1654 19.2501 27.2359 19.2457 27.3108 19.2325C28.0578 19.1157 28.0335 18.4129 28.0225 18.0758C28.0169 17.9943 28.0169 17.9126 28.0225 17.8312C28.0249 17.8166 28.0264 17.8019 28.0269 17.7871L28.0291 17.7849Z" fill="white"/>
<path d="M21.0578 9.8596C21.1459 9.86621 21.234 9.87282 21.3023 9.88384C26.2598 10.6726 28.5424 13.0963 29.1748 18.2564C29.1858 18.3446 29.1858 18.4503 29.188 18.5649C29.1946 18.9681 29.2078 19.8054 30.0804 19.823H30.1068C30.2266 19.8294 30.3464 19.8101 30.4581 19.7664C30.5698 19.7227 30.6709 19.6556 30.7546 19.5696C31.0256 19.2766 31.008 18.8425 30.9925 18.49C30.9881 18.4063 30.9837 18.3247 30.9859 18.2542C31.0476 12.9773 26.6234 8.19169 21.5161 8.01542L21.4544 8.01763C21.4347 8.02052 21.4148 8.022 21.3949 8.02203C21.3442 8.02203 21.2803 8.01763 21.2142 8.01322C21.1263 8.00518 21.0381 8.00077 20.9498 8C20.1368 8 19.9826 8.5949 19.9627 8.95183C19.9187 9.77367 20.6876 9.83316 21.0578 9.8596ZM28.9346 24.9237C28.8285 24.8406 28.7235 24.7561 28.6196 24.6703C28.0775 24.2208 27.5003 23.8066 26.945 23.4056C26.8289 23.3221 26.7128 23.2383 26.5969 23.1544C25.883 22.6388 25.2419 22.3855 24.636 22.3855C23.8207 22.3855 23.1091 22.8526 22.5208 23.7713C22.2608 24.1768 21.9435 24.375 21.5557 24.375C21.285 24.3654 21.0196 24.297 20.778 24.1745C18.4755 23.0949 16.8296 21.4424 15.8888 19.2612C15.4349 18.2036 15.5803 17.5161 16.3823 16.9543C16.8362 16.637 17.6823 16.0443 17.6228 14.9096C17.5567 13.6207 14.8004 9.74282 13.6392 9.30216C13.1439 9.11523 12.5977 9.11366 12.1013 9.29775C10.7683 9.76045 9.80985 10.5757 9.33173 11.6487C8.86903 12.6887 8.89107 13.9071 9.39342 15.1762C10.841 18.8469 12.8747 22.0461 15.4437 24.6857C17.9555 27.2702 21.0446 29.3854 24.6227 30.9762C24.9444 31.1194 25.2837 31.1965 25.5305 31.2538L25.7398 31.3067C25.7685 31.3149 25.7981 31.3194 25.828 31.3199H25.8566C27.5399 31.3199 29.5604 29.7335 30.1817 27.9224C30.7259 26.336 29.7322 25.5538 28.9346 24.9259V24.9237ZM21.8025 14.0525C21.5161 14.0591 20.9146 14.0745 20.703 14.7047C20.6061 14.9999 20.6171 15.2555 20.7383 15.4648C20.9168 15.7733 21.2605 15.868 21.5712 15.9187C22.6993 16.106 23.2809 16.7516 23.3955 17.9458C23.4506 18.5054 23.8141 18.8932 24.2812 18.8932C24.3165 18.8939 24.3519 18.8925 24.387 18.8888C24.9488 18.8183 25.2198 18.393 25.1956 17.6219C25.2044 16.8155 24.7968 15.9033 24.1028 15.1762C23.4065 14.4447 22.5671 14.0327 21.8025 14.0525Z" fill="white"/>
</svg>
