<svg viewBox="0 0 40 40" xmlns="http://www.w3.org/2000/svg" id="social">
<rect width="40" height="40" rx="8"/>
<path fill-rule="evenodd" clip-rule="evenodd" d="M29.2119 10.7785C26.7678 8.34318 23.5173 7.00142 20.0544 7C12.9188 7 7.11144 12.7794 7.10858 19.8827C7.1076 22.1535 7.70362 24.37 8.83655 26.3238L7 33L13.8628 31.2084C15.7537 32.2349 17.8826 32.7759 20.0491 32.7766H20.0546C27.1893 32.7766 32.9973 26.9967 33 19.893C33.0015 16.4504 31.6562 13.2136 29.2119 10.7785ZM20.0544 30.6007H20.0499C18.1192 30.5999 16.2257 30.0835 14.5734 29.108L14.1807 28.8759L10.1082 29.9391L11.1952 25.9875L10.9392 25.5824C9.86216 23.8774 9.29337 21.9068 9.29435 19.8835C9.29659 13.9794 14.1236 9.17596 20.0587 9.17596C22.9327 9.17689 25.6343 10.2922 27.6658 12.3163C29.6972 14.3404 30.8153 17.0308 30.8144 19.8922C30.8118 25.7968 25.9851 30.6007 20.0544 30.6007ZM25.9564 22.5806C25.633 22.4194 24.0426 21.6408 23.746 21.5333C23.4497 21.4258 23.2339 21.3723 23.0184 21.6945C22.8027 22.0166 22.1829 22.7418 21.9941 22.9565C21.8053 23.1714 21.6168 23.1984 21.2933 23.0372C20.9698 22.8761 19.9276 22.536 18.692 21.4393C17.7304 20.5857 17.0813 19.5315 16.8925 19.2094C16.7041 18.8869 16.8909 18.7295 17.0344 18.5524C17.3846 18.1196 17.7352 17.6659 17.843 17.4512C17.951 17.2363 17.8969 17.0483 17.8159 16.8872C17.7352 16.7262 17.0883 15.1416 16.8188 14.4969C16.5561 13.8694 16.2896 13.9541 16.0909 13.9443C15.9025 13.9349 15.6867 13.933 15.471 13.933C15.2554 13.933 14.9049 14.0135 14.6083 14.3359C14.3119 14.6583 13.4764 15.437 13.4764 17.0215C13.4764 18.606 14.6354 20.1367 14.7971 20.3516C14.9588 20.5665 17.0781 23.8181 20.3229 25.2123C21.0946 25.5443 21.697 25.7422 22.167 25.8906C22.9419 26.1356 23.6469 26.101 24.2043 26.0181C24.8258 25.9256 26.1179 25.2393 26.3877 24.4874C26.6572 23.7354 26.6572 23.091 26.5762 22.9565C26.4955 22.8223 26.2798 22.7418 25.9564 22.5806Z" fill="white"/>
</svg>
