<svg width="60" height="60" viewBox="0 0 60 60" fill="none" xmlns="http://www.w3.org/2000/svg">
<path d="M0 6C0 2.68629 2.68629 0 6 0H54C57.3137 0 60 2.68629 60 6V54C60 57.3137 57.3137 60 54 60H6C2.68629 60 0 57.3137 0 54V6Z" fill="#EE2F2F"/>
<path d="M29.5 40.3C32.3643 40.3 35.1114 39.1621 37.1368 37.1368C39.1621 35.1114 40.3 32.3643 40.3 29.5C40.3 26.6357 39.1621 23.8886 37.1368 21.8632C35.1114 19.8379 32.3643 18.7 29.5 18.7C26.6357 18.7 23.8886 19.8379 21.8632 21.8632C19.8379 23.8886 18.7 26.6357 18.7 29.5C18.7 32.3643 19.8379 35.1114 21.8632 37.1368C23.8886 39.1621 26.6357 40.3 29.5 40.3ZM29.5 16C31.2728 16 33.0283 16.3492 34.6662 17.0276C36.3041 17.7061 37.7924 18.7005 39.0459 19.9541C40.2995 21.2076 41.2939 22.6959 41.9724 24.3338C42.6508 25.9717 43 27.7272 43 29.5C43 33.0804 41.5777 36.5142 39.0459 39.0459C36.5142 41.5777 33.0804 43 29.5 43C22.0345 43 16 36.925 16 29.5C16 25.9196 17.4223 22.4858 19.9541 19.9541C22.4858 17.4223 25.9196 16 29.5 16ZM30.175 22.75V29.8375L36.25 33.442L35.2375 35.1025L28.15 30.85V22.75H30.175Z" fill="white"/>
</svg>
