<svg width="60" height="60" viewBox="0 0 60 60" fill="none" xmlns="http://www.w3.org/2000/svg">
<rect width="60" height="60" rx="6" fill="#EE2F2F"/>
<path d="M18.1251 27.8751V37.107C18.1251 38.4071 18.8999 39.5821 20.0949 40.0942L28.2199 43.5764C29.0374 43.9268 29.9628 43.9268 30.7803 43.5764L38.9053 40.0942C40.1003 39.5821 40.8751 38.4071 40.8751 37.107V27.8751M45.7501 24.6251V32.7501M13.0785 23.0858L28.0466 15.6018C28.9616 15.1443 30.0386 15.1443 30.9535 15.6018L45.9216 23.0858C46.5205 23.3853 46.5205 24.2399 45.9216 24.5393L30.9535 32.0233C30.0386 32.4808 28.9616 32.4808 28.0466 32.0233L13.0785 24.5393C12.4797 24.2399 12.4797 23.3853 13.0785 23.0858Z" stroke="white" stroke-width="2" stroke-linecap="round"/>
</svg>
