<svg width="60" height="60" viewBox="0 0 60 60" fill="none" xmlns="http://www.w3.org/2000/svg">
<rect width="60" height="60" rx="6" fill="#EE2F2F"/>
<path d="M17 20.402C18.4444 22.0025 23.0667 25.2035 30 25.2035C36.9333 25.2035 41.5556 22.0025 43 20.402M26.75 25.2035L25.1259 45.998C25.1259 45.9984 25.1261 45.9988 25.1265 45.9989L25.1278 45.9995C25.1283 45.9998 25.1289 45.9996 25.1291 45.9991C25.9446 43.8508 28.0533 36.4069 30 36.4069C31.9467 36.4069 34.0554 43.8508 34.8709 45.9991C34.8711 45.9996 34.8717 45.9998 34.8722 45.9995L34.8735 45.9989C34.8739 45.9988 34.8741 45.9984 34.8741 45.9979L33.25 25.2035M33.25 17.201C33.25 18.9688 31.7949 20.402 30 20.402C28.2051 20.402 26.75 18.9688 26.75 17.201C26.75 15.4331 28.2051 14 30 14C31.7949 14 33.25 15.4331 33.25 17.201Z" stroke="white" stroke-width="2" stroke-linecap="round"/>
</svg>
