<svg width="60" height="60" viewBox="0 0 60 60" fill="none" xmlns="http://www.w3.org/2000/svg">
<rect width="60" height="60" rx="6" fill="#EE2F2F"/>
<path d="M40.2 30.1538H43.6C45.4778 30.1538 47 31.6692 47 33.5385V35.2308C47 37.1 45.4778 38.6154 43.6 38.6154M40.2 30.1538L37.5749 22.3143C37.1122 20.9322 35.8129 20 34.3494 20H26.6M40.2 30.1538H26.6M16.4 30.1538L19.0251 22.3143C19.4878 20.9322 20.7871 20 22.2506 20H26.6M16.4 30.1538H26.6M16.4 30.1538C14.5222 30.1538 13 31.6692 13 33.5385V35.2308C13 37.1 14.5222 38.6154 16.4 38.6154M26.6 30.1538V20M23.2 38.6154H36.8M23.2 38.6154C23.2 40.4847 21.6778 42 19.8 42C17.9222 42 16.4 40.4847 16.4 38.6154M23.2 38.6154C23.2 36.7461 21.6778 35.2308 19.8 35.2308C17.9222 35.2308 16.4 36.7461 16.4 38.6154M36.8 38.6154C36.8 40.4847 38.3222 42 40.2 42C42.0778 42 43.6 40.4847 43.6 38.6154M36.8 38.6154C36.8 36.7461 38.3222 35.2308 40.2 35.2308C42.0778 35.2308 43.6 36.7461 43.6 38.6154" stroke="white" stroke-width="2"/>
</svg>
